<?xml version="1.0" encoding="UTF-8" standalone="no"?>
<svg
   xmlns:dc="http://purl.org/dc/elements/1.1/"
   xmlns:cc="http://creativecommons.org/ns#"
   xmlns:rdf="http://www.w3.org/1999/02/22-rdf-syntax-ns#"
   xmlns:svg="http://www.w3.org/2000/svg"
   xmlns="http://www.w3.org/2000/svg"
   xmlns:sodipodi="http://sodipodi.sourceforge.net/DTD/sodipodi-0.dtd"
   xmlns:inkscape="http://www.inkscape.org/namespaces/inkscape"
   sodipodi:docname="elr_13_18.svg"
   inkscape:version="1.0beta2 (2b71d25, 2019-12-03)"
   id="svg8"
   version="1.1"
   viewBox="0 0 210 297"
   height="297mm"
   width="210mm">
  <defs
     id="defs2">
    <clipPath
       clipPathUnits="userSpaceOnUse"
       id="clipPath56">
      <path
         d="M 59.04,73.44 H 689.76 V 444.96 H 59.04 Z"
         id="path54"
         inkscape:connector-curvature="0" />
    </clipPath>
  </defs>
  <sodipodi:namedview
     inkscape:window-maximized="0"
     inkscape:window-y="23"
     inkscape:window-x="0"
     inkscape:window-height="880"
     inkscape:window-width="1600"
     showgrid="false"
     inkscape:document-rotation="0"
     inkscape:current-layer="layer1"
     inkscape:document-units="mm"
     inkscape:cy="383.53479"
     inkscape:cx="365.14969"
     inkscape:zoom="0.76106751"
     inkscape:pageshadow="2"
     inkscape:pageopacity="0.0"
     borderopacity="1.0"
     bordercolor="#666666"
     pagecolor="#ffffff"
     id="base" />
  <metadata
     id="metadata5">
    <rdf:RDF>
      <cc:Work
         rdf:about="">
        <dc:format>image/svg+xml</dc:format>
        <dc:type
           rdf:resource="http://purl.org/dc/dcmitype/StillImage" />
        <dc:title></dc:title>
      </cc:Work>
    </rdf:RDF>
  </metadata>
  <g
     id="layer1"
     inkscape:groupmode="layer"
     inkscape:label="Layer 1">
    <g
       id="g36"
       inkscape:label="elr_13_18"
       transform="matrix(0.24326102,0,0,-0.24326102,19.63944,155.85265)">
      <g
         id="g38" />
      <g
         id="g40">
        <path
           d="M 59.04,73.44 H 689.76 V 444.96 H 59.04 V 73.44"
           style="fill:none;stroke:#000000;stroke-width:0.75;stroke-linecap:round;stroke-linejoin:round;stroke-miterlimit:10;stroke-dasharray:none;stroke-opacity:1"
           id="path42"
           inkscape:connector-curvature="0" />
      </g>
      <g
         id="g44">
        <text
           transform="matrix(1,0,0,-1,297.72,465.86)"
           style="font-variant:normal;font-weight:bold;font-size:24px;font-family:Helvetica;-inkscape-font-specification:Helvetica-Bold;writing-mode:lr-tb;fill:#000000;fill-opacity:1;fill-rule:nonzero;stroke:none"
           id="text48"><tspan
             x="0 18.672001 33.335999 48 61.344002 74.688004 81.360001 94.704002 101.376 118.704 136.032"
             y="0"
             sodipodi:role="line"
             id="tspan46">QTL13 x AHR</tspan></text>
      </g>
      <g
         id="g50">
        <g
           id="g52"
           clip-path="url(#clipPath56)">
          <path
             d="M 257.6,73.44 H 491.2 V 444.96 H 257.6 Z"
             style="fill:#d3d3d3;fill-opacity:1;fill-rule:nonzero;stroke:none"
             id="path58"
             inkscape:connector-curvature="0" />
          <path
             d="m 206.21,362.4 233.6,3.97 233.6,-3.97"
             style="fill:none;stroke:#6495ed;stroke-width:3.75;stroke-linecap:round;stroke-linejoin:round;stroke-miterlimit:10;stroke-dasharray:none;stroke-opacity:1"
             id="path60"
             inkscape:connector-curvature="0" />
          <path
             d="M 140.8,414 374.4,166.32 608,237.09"
             style="fill:none;stroke:#00008b;stroke-width:3.75;stroke-linecap:round;stroke-linejoin:round;stroke-miterlimit:10;stroke-dasharray:none;stroke-opacity:1"
             id="path62"
             inkscape:connector-curvature="0" />
          <path
             d="m 75.39,414 233.6,-309.6 h 233.6"
             style="fill:none;stroke:#000000;stroke-width:3.75;stroke-linecap:round;stroke-linejoin:round;stroke-miterlimit:10;stroke-dasharray:none;stroke-opacity:1"
             id="path64"
             inkscape:connector-curvature="0" />
          <path
             d="m 95.45,414 c 0,24.94 20.41,45.35 45.35,45.35 24.94,0 45.35,-20.41 45.35,-45.35 0,-24.94 -20.41,-45.35 -45.35,-45.35 -24.94,0 -45.35,20.41 -45.35,45.35"
             style="fill:#00008b;fill-opacity:1;fill-rule:nonzero;stroke:#00008b;stroke-width:0.75;stroke-linecap:round;stroke-linejoin:round;stroke-miterlimit:10;stroke-dasharray:none;stroke-opacity:1"
             id="path66"
             inkscape:connector-curvature="0" />
          <path
             d="m 347.09,166.32 c 0,15.02 12.29,27.31 27.31,27.31 15.02,0 27.31,-12.29 27.31,-27.31 0,-15.02 -12.29,-27.31 -27.31,-27.31 -15.02,0 -27.31,12.29 -27.31,27.31"
             style="fill:#00008b;fill-opacity:1;fill-rule:nonzero;stroke:#00008b;stroke-width:0.75;stroke-linecap:round;stroke-linejoin:round;stroke-miterlimit:10;stroke-dasharray:none;stroke-opacity:1"
             id="path68"
             inkscape:connector-curvature="0" />
          <path
             d="m 582.33,237.09 c 0,14.11 11.55,25.66 25.67,25.66 14.12,0 25.67,-11.55 25.67,-25.66 0,-14.12 -11.55,-25.67 -25.67,-25.67 -14.12,0 -25.67,11.55 -25.67,25.67"
             style="fill:#00008b;fill-opacity:1;fill-rule:nonzero;stroke:#00008b;stroke-width:0.75;stroke-linecap:round;stroke-linejoin:round;stroke-miterlimit:10;stroke-dasharray:none;stroke-opacity:1"
             id="path70"
             inkscape:connector-curvature="0" />
          <path
             d="m 164.14,362.4 c 0,23.14 18.93,42.07 42.07,42.07 23.14,0 42.07,-18.93 42.07,-42.07 0,-23.14 -18.93,-42.07 -42.07,-42.07 -23.14,0 -42.07,18.93 -42.07,42.07"
             style="fill:#6495ed;fill-opacity:1;fill-rule:nonzero;stroke:#6495ed;stroke-width:0.75;stroke-linecap:round;stroke-linejoin:round;stroke-miterlimit:10;stroke-dasharray:none;stroke-opacity:1"
             id="path72"
             inkscape:connector-curvature="0" />
          <path
             d="m 415.78,366.37 c 0,13.21 10.81,24.03 24.03,24.03 13.21,0 24.02,-10.82 24.02,-24.03 0,-13.22 -10.81,-24.03 -24.02,-24.03 -13.22,0 -24.03,10.81 -24.03,24.03"
             style="fill:#6495ed;fill-opacity:1;fill-rule:nonzero;stroke:#6495ed;stroke-width:0.75;stroke-linecap:round;stroke-linejoin:round;stroke-miterlimit:10;stroke-dasharray:none;stroke-opacity:1"
             id="path74"
             inkscape:connector-curvature="0" />
          <path
             d="m 631.34,362.4 c 0,23.14 18.93,42.07 42.07,42.07 23.14,0 42.07,-18.93 42.07,-42.07 0,-23.14 -18.93,-42.07 -42.07,-42.07 -23.14,0 -42.07,18.93 -42.07,42.07"
             style="fill:#6495ed;fill-opacity:1;fill-rule:nonzero;stroke:#6495ed;stroke-width:0.75;stroke-linecap:round;stroke-linejoin:round;stroke-miterlimit:10;stroke-dasharray:none;stroke-opacity:1"
             id="path76"
             inkscape:connector-curvature="0" />
          <path
             d="m 53.01,414 c 0,12.31 10.07,22.39 22.38,22.39 12.31,0 22.39,-10.08 22.39,-22.39 0,-12.31 -10.08,-22.39 -22.39,-22.39 -12.31,0 -22.38,10.08 -22.38,22.39"
             style="fill:#000000;fill-opacity:1;fill-rule:nonzero;stroke:#000000;stroke-width:0.75;stroke-linecap:round;stroke-linejoin:round;stroke-miterlimit:10;stroke-dasharray:none;stroke-opacity:1"
             id="path78"
             inkscape:connector-curvature="0" />
          <path
             d="m 288.25,104.4 c 0,11.41 9.33,20.75 20.74,20.75 11.41,0 20.75,-9.34 20.75,-20.75 0,-11.41 -9.34,-20.75 -20.75,-20.75 -11.41,0 -20.74,9.34 -20.74,20.75"
             style="fill:#000000;fill-opacity:1;fill-rule:nonzero;stroke:#000000;stroke-width:0.75;stroke-linecap:round;stroke-linejoin:round;stroke-miterlimit:10;stroke-dasharray:none;stroke-opacity:1"
             id="path80"
             inkscape:connector-curvature="0" />
          <path
             d="m 513.64,104.4 c 0,15.92 13.03,28.95 28.95,28.95 15.92,0 28.95,-13.03 28.95,-28.95 0,-15.92 -13.03,-28.95 -28.95,-28.95 -15.92,0 -28.95,13.03 -28.95,28.95"
             style="fill:#000000;fill-opacity:1;fill-rule:nonzero;stroke:#000000;stroke-width:0.75;stroke-linecap:round;stroke-linejoin:round;stroke-miterlimit:10;stroke-dasharray:none;stroke-opacity:1"
             id="path82"
             inkscape:connector-curvature="0" />
          <text
             transform="matrix(1,0,0,-1,199.54,354.11)"
             style="font-variant:normal;font-weight:bold;font-size:24px;font-family:Helvetica;-inkscape-font-specification:Helvetica-Bold;writing-mode:lr-tb;fill:#ffffff;fill-opacity:1;fill-rule:nonzero;stroke:none"
             id="text86"><tspan
               x="0"
               y="0"
               id="tspan84">6</tspan></text>
          <text
             transform="matrix(1,0,0,-1,426.46,358.08)"
             style="font-variant:normal;font-weight:bold;font-size:24px;font-family:Helvetica;-inkscape-font-specification:Helvetica-Bold;writing-mode:lr-tb;fill:#ffffff;fill-opacity:1;fill-rule:nonzero;stroke:none"
             id="text90"><tspan
               x="0 13.344"
               y="0"
               sodipodi:role="line"
               id="tspan88">13</tspan></text>
          <text
             transform="matrix(1,0,0,-1,666.74,354.11)"
             style="font-variant:normal;font-weight:bold;font-size:24px;font-family:Helvetica;-inkscape-font-specification:Helvetica-Bold;writing-mode:lr-tb;fill:#ffffff;fill-opacity:1;fill-rule:nonzero;stroke:none"
             id="text94"><tspan
               x="0"
               y="0"
               id="tspan92">6</tspan></text>
          <text
             transform="matrix(1,0,0,-1,127.46,405.71)"
             style="font-variant:normal;font-weight:bold;font-size:24px;font-family:Helvetica;-inkscape-font-specification:Helvetica-Bold;writing-mode:lr-tb;fill:#ffffff;fill-opacity:1;fill-rule:nonzero;stroke:none"
             id="text98"><tspan
               x="0 13.344"
               y="0"
               sodipodi:role="line"
               id="tspan96">13</tspan></text>
          <text
             transform="matrix(1,0,0,-1,361.06,158.03)"
             style="font-variant:normal;font-weight:bold;font-size:24px;font-family:Helvetica;-inkscape-font-specification:Helvetica-Bold;writing-mode:lr-tb;fill:#ffffff;fill-opacity:1;fill-rule:nonzero;stroke:none"
             id="text102"><tspan
               x="0 13.344"
               y="0"
               sodipodi:role="line"
               id="tspan100">15</tspan></text>
          <text
             transform="matrix(1,0,0,-1,601.33,228.71)"
             style="font-variant:normal;font-weight:bold;font-size:24px;font-family:Helvetica;-inkscape-font-specification:Helvetica-Bold;writing-mode:lr-tb;fill:#ffffff;fill-opacity:1;fill-rule:nonzero;stroke:none"
             id="text106"><tspan
               x="0"
               y="0"
               id="tspan104">7</tspan></text>
          <text
             transform="matrix(1,0,0,-1,68.72,405.71)"
             style="font-variant:normal;font-weight:bold;font-size:24px;font-family:Helvetica;-inkscape-font-specification:Helvetica-Bold;writing-mode:lr-tb;fill:#ffffff;fill-opacity:1;fill-rule:nonzero;stroke:none"
             id="text110"><tspan
               x="0"
               y="0"
               id="tspan108">3</tspan></text>
          <text
             transform="matrix(1,0,0,-1,295.65,95.88)"
             style="font-variant:normal;font-weight:bold;font-size:24px;font-family:Helvetica;-inkscape-font-specification:Helvetica-Bold;writing-mode:lr-tb;fill:#ffffff;fill-opacity:1;fill-rule:nonzero;stroke:none"
             id="text114"><tspan
               x="0 13.344"
               y="0"
               sodipodi:role="line"
               id="tspan112">11</tspan></text>
          <text
             transform="matrix(1,0,0,-1,535.92,95.88)"
             style="font-variant:normal;font-weight:bold;font-size:24px;font-family:Helvetica;-inkscape-font-specification:Helvetica-Bold;writing-mode:lr-tb;fill:#ffffff;fill-opacity:1;fill-rule:nonzero;stroke:none"
             id="text118"><tspan
               x="0"
               y="0"
               id="tspan116">4</tspan></text>
        </g>
      </g>
      <g
         id="g120">
        <text
           transform="matrix(1,0,0,-1,302.38,18.72)"
           style="font-variant:normal;font-weight:bold;font-size:18px;font-family:Helvetica;-inkscape-font-specification:Helvetica-Bold;writing-mode:lr-tb;fill:#000000;fill-opacity:1;fill-rule:nonzero;stroke:none"
           id="text124"><tspan
             x="0 14.004 25.002001 36 46.007999 56.015999 61.02 75.024002 85.031998 96.029999 107.028 113.022 123.03 134.028"
             y="0"
             sodipodi:role="line"
             id="tspan122">QTL13 Genotype</tspan></text>
        <text
           transform="matrix(0,1,1,0,12.96,168.88)"
           style="font-variant:normal;font-weight:bold;font-size:18px;font-family:Helvetica;-inkscape-font-specification:Helvetica-Bold;writing-mode:lr-tb;fill:#000000;fill-opacity:1;fill-rule:nonzero;stroke:none"
           id="text128"><tspan
             x="0 12.006 18.648001 29.646 40.644001 51.641998 59.004002 64.998001 70.001999 81 91.998001 97.001999 109.998 120.006 125.64 136.638 143.64 159.642 169.64999"
             y="0"
             sodipodi:role="line"
             id="tspan126">Proportion Deformed</tspan></text>
        <path
           d="M 140.8,73.44 H 608"
           style="fill:none;stroke:#000000;stroke-width:0.75;stroke-linecap:round;stroke-linejoin:round;stroke-miterlimit:10;stroke-dasharray:none;stroke-opacity:1"
           id="path130"
           inkscape:connector-curvature="0" />
        <path
           d="m 140.8,73.44 v -7.2"
           style="fill:none;stroke:#000000;stroke-width:0.75;stroke-linecap:round;stroke-linejoin:round;stroke-miterlimit:10;stroke-dasharray:none;stroke-opacity:1"
           id="path132"
           inkscape:connector-curvature="0" />
        <path
           d="m 374.4,73.44 v -7.2"
           style="fill:none;stroke:#000000;stroke-width:0.75;stroke-linecap:round;stroke-linejoin:round;stroke-miterlimit:10;stroke-dasharray:none;stroke-opacity:1"
           id="path134"
           inkscape:connector-curvature="0" />
        <path
           d="m 608,73.44 v -7.2"
           style="fill:none;stroke:#000000;stroke-width:0.75;stroke-linecap:round;stroke-linejoin:round;stroke-miterlimit:10;stroke-dasharray:none;stroke-opacity:1"
           id="path136"
           inkscape:connector-curvature="0" />
        <text
           transform="matrix(1,0,0,-1,123.47,47.52)"
           style="font-variant:normal;font-weight:bold;font-size:24px;font-family:Helvetica;-inkscape-font-specification:Helvetica-Bold;writing-mode:lr-tb;fill:#000000;fill-opacity:1;fill-rule:nonzero;stroke:none"
           id="text140"><tspan
             x="0 17.327999"
             y="0"
             sodipodi:role="line"
             id="tspan138">AA</tspan></text>
        <text
           transform="matrix(1,0,0,-1,357.07,47.52)"
           style="font-variant:normal;font-weight:bold;font-size:24px;font-family:Helvetica;-inkscape-font-specification:Helvetica-Bold;writing-mode:lr-tb;fill:#000000;fill-opacity:1;fill-rule:nonzero;stroke:none"
           id="text144"><tspan
             x="0 17.327999"
             y="0"
             sodipodi:role="line"
             id="tspan142">AB</tspan></text>
        <text
           transform="matrix(1,0,0,-1,590.67,47.52)"
           style="font-variant:normal;font-weight:bold;font-size:24px;font-family:Helvetica;-inkscape-font-specification:Helvetica-Bold;writing-mode:lr-tb;fill:#000000;fill-opacity:1;fill-rule:nonzero;stroke:none"
           id="text148"><tspan
             x="0 17.327999"
             y="0"
             sodipodi:role="line"
             id="tspan146">BB</tspan></text>
        <path
           d="M 59.04,104.4 V 414"
           style="fill:none;stroke:#000000;stroke-width:0.75;stroke-linecap:round;stroke-linejoin:round;stroke-miterlimit:10;stroke-dasharray:none;stroke-opacity:1"
           id="path150"
           inkscape:connector-curvature="0" />
        <path
           d="m 59.04,104.4 h -7.2"
           style="fill:none;stroke:#000000;stroke-width:0.75;stroke-linecap:round;stroke-linejoin:round;stroke-miterlimit:10;stroke-dasharray:none;stroke-opacity:1"
           id="path152"
           inkscape:connector-curvature="0" />
        <path
           d="m 59.04,259.2 h -7.2"
           style="fill:none;stroke:#000000;stroke-width:0.75;stroke-linecap:round;stroke-linejoin:round;stroke-miterlimit:10;stroke-dasharray:none;stroke-opacity:1"
           id="path154"
           inkscape:connector-curvature="0" />
        <path
           d="m 59.04,414 h -7.2"
           style="fill:none;stroke:#000000;stroke-width:0.75;stroke-linecap:round;stroke-linejoin:round;stroke-miterlimit:10;stroke-dasharray:none;stroke-opacity:1"
           id="path156"
           inkscape:connector-curvature="0" />
        <text
           transform="matrix(0,1,1,0,41.76,97.73)"
           style="font-variant:normal;font-weight:bold;font-size:24px;font-family:Helvetica;-inkscape-font-specification:Helvetica-Bold;writing-mode:lr-tb;fill:#000000;fill-opacity:1;fill-rule:nonzero;stroke:none"
           id="text160"><tspan
             x="0"
             y="0"
             id="tspan158">0</tspan></text>
        <text
           transform="matrix(0,1,1,0,41.76,242.52)"
           style="font-variant:normal;font-weight:bold;font-size:24px;font-family:Helvetica;-inkscape-font-specification:Helvetica-Bold;writing-mode:lr-tb;fill:#000000;fill-opacity:1;fill-rule:nonzero;stroke:none"
           id="text164"><tspan
             x="0 13.344 20.016001"
             y="0"
             sodipodi:role="line"
             id="tspan162">0.5</tspan></text>
        <text
           transform="matrix(0,1,1,0,41.76,397.32)"
           style="font-variant:normal;font-weight:bold;font-size:24px;font-family:Helvetica;-inkscape-font-specification:Helvetica-Bold;writing-mode:lr-tb;fill:#000000;fill-opacity:1;fill-rule:nonzero;stroke:none"
           id="text168"><tspan
             x="0 13.344 20.016001"
             y="0"
             sodipodi:role="line"
             id="tspan166">1.0</tspan></text>
      </g>
    </g>
  </g>
</svg>
